<?xml version="1.0" encoding="UTF-8"?>
<svg id="Layer_1" xmlns="http://www.w3.org/2000/svg" xmlns:xlink="http://www.w3.org/1999/xlink" version="1.1" viewBox="0 0 1080 260.52">
  <!-- Generator: Adobe Illustrator 30.3.0, SVG Export Plug-In . SVG Version: 2.1.3 Build 182)  -->
  <defs>
    <style>
      .st0 {
        fill: url(#linear-gradient2);
      }

      .st1 {
        fill: url(#linear-gradient1);
      }

      .st2 {
        fill: url(#linear-gradient3);
      }

      .st3 {
        fill: url(#linear-gradient5);
      }

      .st4 {
        fill: url(#linear-gradient4);
      }

      .st5 {
        fill: url(#linear-gradient);
      }

      .st6 {
        fill: #fff;
      }

      .st7 {
        fill: #e4874b;
      }
    </style>
    <linearGradient id="linear-gradient" x1="113.44" y1="23.56" x2="564.44" y2="18.56" gradientUnits="userSpaceOnUse">
      <stop offset="0" stop-color="#e4874b"/>
      <stop offset=".12" stop-color="#e8914b"/>
      <stop offset=".46" stop-color="#f3ab4c"/>
      <stop offset=".76" stop-color="#fabb4d"/>
      <stop offset="1" stop-color="#fdc14e"/>
    </linearGradient>
    <linearGradient id="linear-gradient1" x1="113.44" y1="24.1" x2="564.44" y2="19.1" xlink:href="#linear-gradient"/>
    <linearGradient id="linear-gradient2" x1="113.45" y1="24.58" x2="564.45" y2="19.58" xlink:href="#linear-gradient"/>
    <linearGradient id="linear-gradient3" x1="115.37" y1="198.1" x2="566.37" y2="193.1" xlink:href="#linear-gradient"/>
    <linearGradient id="linear-gradient4" x1="1505.11" y1="905.83" x2="1505.11" y2="661.36" gradientTransform="translate(-437.96 -1376.84) rotate(90) scale(1 -1)" gradientUnits="userSpaceOnUse">
      <stop offset="0" stop-color="#e4874b"/>
      <stop offset=".12" stop-color="#e8914b"/>
      <stop offset=".46" stop-color="#f3ab4c"/>
      <stop offset=".76" stop-color="#fabb4d"/>
      <stop offset="1" stop-color="#fdc14e"/>
    </linearGradient>
    <linearGradient id="linear-gradient5" x1="1505.13" y1="905.83" x2="1505.13" y2="661.36" gradientTransform="translate(-437.96 -1376.84) rotate(90) scale(1 -1)" xlink:href="#linear-gradient"/>
  </defs>
  <g>
    <g>
      <g>
        <path class="st6" d="M462.22,127.98c0-44.73-32.11-76.61-87.46-76.61h-28.24c15.3,9.44,27.63,22.75,35.38,38.41,22.03,2.25,36.26,16.21,36.26,38.86v.44c0,23.06-14.49,36.89-36.87,38.92-8.13,15.8-20.96,29.1-36.77,38.35h29.35c55.8,0,88.35-33.21,88.35-77.94v-.44h0Z"/>
        <path class="st6" d="M526.89,50.26l-65.98,156.1h45.17l11.07-27.68h59.78l11.29,27.68h46.06l-65.98-156.1h-41.41ZM529.76,145.25l17.49-44.06,17.27,44.06h-34.76Z"/>
        <polygon class="st6" points="788.17 141.04 758.28 50.92 721.3 50.92 691.41 141.04 664.39 51.37 619 51.37 670.82 207.47 708.24 207.47 739.24 118.24 770.46 207.47 807.88 207.47 859.69 51.37 815.18 51.37 788.17 141.04"/>
        <polygon class="st6" points="980.59 51.37 980.59 133.29 916.82 51.37 876.74 51.37 876.74 206.36 919.26 206.36 919.26 121.34 985.46 206.36 1023.1 206.36 1023.1 51.37 980.59 51.37"/>
      </g>
      <g>
        <path class="st5" d="M346.17,10.19h-12.59V0h36.81v10.19h-12.59v31.78h-11.63V10.19Z"/>
        <path class="st1" d="M375.48,0h11.63v15.71h14.93V0h11.63v41.97h-11.63v-15.95h-14.93v15.95h-11.63V0Z"/>
        <path class="st0" d="M421.1,0h33.76v9.89h-22.25v6.35h20.15v9.17h-20.15v6.66h22.54v9.89h-34.06V0h0Z"/>
      </g>
    </g>
    <circle class="st2" cx="1061.25" cy="187.61" r="18.75"/>
  </g>
  <g>
    <g>
      <path class="st4" d="M256.04,48.92c0,7.14,5.84,12.86,12.99,12.79h.77c40.38,0,73.23,29.86,73.23,66.56s-32.85,66.56-73.23,66.56h-.77c-7.14-.07-12.99,5.65-12.99,12.79h0c0,7,5.62,12.73,12.62,12.81h1.14c54.5,0,98.83-41.34,98.83-92.16s-44.34-92.16-98.83-92.16h-1.14c-7,.08-12.62,5.81-12.62,12.81h0Z"/>
      <path class="st3" d="M256.04,85.73c0,7.19,5.92,12.91,13.11,12.79h.65c18.38,0,33.33,13.35,33.33,29.76s-14.95,29.76-33.33,29.76h-.65c-7.19-.12-13.11,5.59-13.11,12.79h0c0,6.97,5.58,12.67,12.55,12.81.4,0,.8,0,1.21,0,32.5,0,58.93-24.83,58.93-55.36s-26.44-55.36-58.93-55.36c-.4,0-.8,0-1.21.01-6.97.14-12.55,5.83-12.55,12.81h0v-.02Z"/>
      <path class="st7" d="M256.04,124.23v8.08c0,6.07,4.24,11.45,10.21,12.54,1.15.21,2.33.32,3.55.32,10.11,0,18.31-7.56,18.31-16.89s-8.2-16.89-18.31-16.89c-1.21,0-2.4.11-3.55.32-5.97,1.09-10.21,6.47-10.21,12.54v-.02Z"/>
    </g>
    <g>
      <g>
        <path class="st6" d="M117.66,242.53c-5.84-6.25-9.16-13.59-10.79-21.95-1.37-7-3.41-13.87-5.23-21.09-2.5.38-4.32.66-8.13,1.25,6.9-4.87,12.6-8.18,17.32-12.55,2.07-1.92,3.57-6.05,2.78-9.13-.58-2.27-4.19-2.11-6.46-2.14-13.55-.21-27.1-.1-40.65-.1h-17.49c-.18,1.53-.44,2.21-.3,2.8,6.22,25.41,12.52,50.79,18.66,76.21.9,3.74,2.97,4.73,6.53,4.7,14.2-.13,28.41,0,42.62-.05,7.12-.03,9.72-4.62,6.21-11.13-1.33-2.47-3.16-4.75-5.08-6.81h.01Z"/>
        <path class="st6" d="M26.43,103.01v50.74c-9.85.84-16.75-3.57-21.74-10.95-5.87-8.68-6.27-18.11-1.01-27.22,4.78-8.26,11.89-13.12,22.74-12.58h.01Z"/>
      </g>
      <g>
        <path class="st6" d="M118.01,101.52c-.48,6.97-.08,14-.24,21.01-.04,1.77-.91,3.52-1.39,5.28-.71-.06-1.41-.12-2.12-.18-.24-1.99-.67-3.97-.69-5.96-.08-8.76-.29-17.53.06-26.27.22-5.51-1.87-7.21-7.24-7.15-22.11.22-44.23.23-66.34,0-5.79-.06-7.67,2.13-7.62,7.72.19,21.67.22,43.35-.02,65.03-.07,6.15,1.89,8.57,8.32,8.49,23.43-.29,46.86,0,70.28-.15,14.35-.08,27.65,3.41,40.09,10.52,14.63,8.36,56.54,31.78,64.12,35.9V41.97c-1.92.65-63.92,35.54-93.6,52.84-1.91,1.11-3.45,4.35-3.61,6.71ZM106.2,103.11H41.14v-7.55h65.07v7.55h-.01ZM134.62,102.99c21.62-11.48,42.84-23.7,64.21-35.63,1.88-1.05,3.81-2.03,6.23-3.31,1.5,6.32,1.52,10.71-5.13,14.22-22.04,11.61-43.72,23.9-65.55,35.91-2.04,1.12-4.13,2.17-6.28,3.3-2.24-7.33.16-11.11,6.51-14.48h.01Z"/>
        <path class="st6" d="M233.97,25.44c-7.44,0-13.52,6.08-13.52,13.52v178.85c0,7.44,6.08,13.52,13.52,13.52s13.52-6.08,13.52-13.52V38.96c0-7.44-6.08-13.52-13.52-13.52Z"/>
      </g>
    </g>
  </g>
</svg>